/* XPM */
static char *ac415304739e4c479dffbfb60dfc6484[] = {
/* columns rows colors chars-per-pixel */
"36 36 101 2 ",
"   c None",
".  c #3E2630",
"X  c #3F2630",
"o  c #3E2631",
"O  c #3F2631",
"+  c #3F2731",
"@  c #3F2632",
"#  c #3E2733",
"$  c #3E2834",
"%  c #3E2835",
"&  c #3D2A37",
"*  c #3D2B38",
"=  c #3C2B39",
"-  c #3C2C3A",
";  c #3A2F3E",
":  c #3A303F",
">  c #402531",
",  c #402631",
"<  c #402833",
"1  c #432B37",
"2  c #462F3A",
"3  c #4A343F",
"4  c #383243",
"5  c #363649",
"6  c #35384C",
"7  c #34394E",
"8  c #333D52",
"9  c #323D53",
"0  c #2E445E",
"q  c #2E4660",
"w  c #2B4B67",
"e  c #2C4965",
"r  c #28506F",
"t  c #265374",
"y  c #285170",
"u  c #255678",
"i  c #53404C",
"p  c #55424E",
"a  c #4A5164",
"s  c #665865",
"d  c #1F6086",
"f  c #1E638A",
"g  c #1E638B",
"h  c #1B6993",
"j  c #196D99",
"k  c #17709E",
"l  c #3D6483",
"z  c #1475A6",
"x  c #117AAD",
"c  c #117CAF",
"v  c #107DB1",
"b  c #2F78A0",
"n  c #807886",
"m  c #0D81B7",
"M  c #0B87BF",
"N  c #228BBF",
"B  c #5E98BC",
"V  c #7791AA",
"C  c #6B94B3",
"Z  c #098AC4",
"A  c #0394D3",
"S  c #0295D5",
"D  c #0297D7",
"F  c #0198D9",
"G  c #009ADB",
"H  c #009ADC",
"J  c #189BD6",
"K  c #1A9CD7",
"L  c #1C9ED9",
"P  c #1EA0DA",
"I  c #20A2DC",
"U  c #569CC5",
"Y  c #5EA3CA",
"T  c #65A9D0",
"R  c #6CB0D5",
"E  c #73B6DB",
"W  c #75B8DC",
"Q  c #898593",
"!  c #8E8B99",
"~  c #848DA0",
"^  c #91A0B8",
"/  c #96A5BD",
"(  c #9CAAC1",
")  c #A1AFC5",
"_  c #A7B4C9",
"`  c #AAB7CB",
"'  c #ACB9CD",
"]  c #ADBACE",
"[  c #B0BCD0",
"{  c #B2BED2",
"}  c #B3BFD2",
"|  c #B6C2D4",
" . c #B9C2D3",
".. c #B8C3D6",
"X. c #B9C4D6",
"o. c #BCC7D9",
"O. c #BDC9DA",
"+. c #BEC9DA",
"@. c #BEC9DB",
"#. c #BFCADB",
"$. c #C0CBDC",
/* pixels */
"                  > O O O O O O O >                                     ",
"                  O O O O O O O O O                                     ",
"              O O O O O O O O O O O O O O O O O                         ",
"              O O O < 1 2 2 2 1 < O O O O O O O O                       ",
"              O O O 3 s n n n s 3 O O O O O O O O O O O                 ",
"              O O O i Q  . . .Q i O O O O O O O O O O O O               ",
"              O O O p ! #.| ] V l t t t t y 8 % O O O O O >             ",
"              O O O p ! #.` / B N M M M M m u = O O O O O O O           ",
"              O O O p ! #.] ( Y K H H H H D k w q q 8 ; O O O O         ",
"              O O O p ! #.X.} R P H H H H G Z c x x f 8 O O O O         ",
"              O O O p ! $.$.$.W I H H H H H H H H H x q O O O O         ",
"              O O O p ! $.$.$.W I H H H H H H H H H x q O O O O         ",
"              O O O p ! $.#.#.E I H H H H G D A A A z 0 O O O O         ",
"              O O O p ! #.} _ T L H H H H D v f d d r 5 O O O O         ",
"              O O O p ! #._ ^ U J H H H H A f 4 - - = % O O O O         ",
"              O O O p ! #.} ) C b j j j j h e % O O O O O O O           ",
"              O O O p ! $.o...~ a 7 7 7 7 7 : O O O O O O               ",
"              O O O p ! $.$.$.! p O O O O O O O O O > > O               ",
"              O O O p ! $.$.$.! p O O O O O O O O                       ",
"              O O O p ! $.$.$.! p O O O O O O O O                       ",
"              O O O p ! $.$.$.! p O O O >                               ",
"              O O O p ! $.$.$.! p O O O                                 ",
"              O O O p ! $.$.$.! p O O O                                 ",
"              O O O p ! $.$.$.! p O O O                                 ",
"              O O O p ! $.$.$.! p O O O                                 ",
"              O O O p ! $.$.$.! p O O O                                 ",
"              O O O p ! $.$.$.! p O O O                                 ",
"              O O O p ! $.$.$.! p O O O                                 ",
"              O O O p ! $.$.$.! p O O O                                 ",
"              O O O p ! $.$.$.! p O O O                                 ",
"              O O O p ! $.$.$.! p O O O                                 ",
"              O O O p ! $.$.$.! p O O O                                 ",
"              O O O p ! $.$.$.! p O O O                                 ",
"              O O O p ! $.$.$.! p O O O                                 ",
"              O O O p ! $.$.$.! p O O O                                 ",
"              O O O p ! $.$.$.! p O O O                                 "
};
