/* XPM */
static char *_90071d97064418fb79bfaad7087ba88[] = {
/* columns rows colors chars-per-pixel */
"36 36 44 1 ",
"  c None",
". c #43495F",
"X c #434A5F",
"o c #464D62",
"O c #4D5367",
"+ c #4C5368",
"@ c #4F556B",
"# c #555C71",
"$ c #5D647B",
"% c #606678",
"& c #63697C",
"* c #666C84",
"= c #697081",
"- c #727890",
"; c #757B93",
": c #797F95",
"> c #7A8094",
", c #7A8098",
"< c #7D839B",
"1 c #81879E",
"2 c #868CA0",
"3 c #898EA3",
"4 c #8B91A9",
"5 c #959BAE",
"6 c #999FAB",
"7 c #949AB2",
"8 c #9FA5BA",
"9 c #9FA5BD",
"0 c #A0A6B6",
"q c #A2A8B5",
"w c #A6ACBF",
"e c #AEB3C1",
"r c #AEB4C7",
"t c #B6BBC5",
"y c #B6BBC9",
"u c #BABFCF",
"i c #C4CAD4",
"p c #C8CDD7",
"a c #CACFDA",
"s c #CDD2DC",
"d c #D1D6DF",
"f c #D5DAE2",
"g c #D8DDE4",
"h c #DCE1E7",
/* pixels */
"  ................................  ",
"  ................................  ",
"....................................",
"...O%==========================%O...",
"...%6tttttttttttttttttttttttttt6%...",
"...=thhhhhhhhhhhhhhhhhhhhhhhhfpq&...",
"...=thhhhhhhhhhhhhhhhhhhhhhhhp0>#...",
"...=thhgdssssssssssssssssssaie2*@...",
"...=thhdurrrrrrrrrrrrrrrrrrw52:*@...",
"...=thhsr9999999999999999997<--*@...",
"...=thhsr9999999999999999997<--*@...",
"...=thhsr9999999999999999997<--*@...",
"...=thhsr9999999999999999997<--*@...",
"...=thhsr9999999999999999997<--*@...",
"...=thhsr9999999999999999997<--*@...",
"...=thhsr9999999999999999997<--*@...",
"...=thhsr9999999999999999997<--*@...",
"...=thhsr9999999999999999997<--*@...",
"...=thhsr9999999999999999997<--*@...",
"...=thhsr9999999999999999997<--*@...",
"...=thhsr9999999999999999997<--*@...",
"...=thhsr9999999999999999997<--*@...",
"...=thhsr9999999999999999997<--*@...",
"...=thhsr9999999999999999997<--*@...",
"...=thhsr9999999999999999997<--*@...",
"...=thhsr9999999999999999997<--*@...",
"...=thhsr9999999999999999997<--*@...",
"...=tfpy87777777777777777774,--*@...",
"...=tp031<<<<<<<<<<<<<<<<<<,;--*@...",
"...&qe2------------------------*@...",
"...#>2:------------------------*@...",
"...+$**************************$+...",
"...o+@@@@@@@@@@@@@@@@@@@@@@@@@@+o...",
"....................................",
"  ................................  ",
"  ................................  "
};
