/* XPM */
static char *_b5b40cb63b84450a96951380123ae14[] = {
/* columns rows colors chars-per-pixel */
"36 36 147 2 ",
"   c None",
".  c #452D6C",
"X  c #4B3175",
"o  c #4D3179",
"O  c #51357D",
"+  c #543A7C",
"@  c #543684",
"#  c #553880",
"$  c #593E83",
"%  c #573789",
"&  c #5A398D",
"*  c #5D3B93",
"=  c #603D97",
"-  c #613E98",
";  c #5B4283",
":  c #5D418A",
">  c #62488C",
",  c #634493",
"<  c #684D91",
"1  c #64409B",
"2  c #6B4A9D",
"3  c #6F5596",
"4  c #74579F",
"5  c #765A9C",
"6  c #7C649C",
"7  c #7C699A",
"8  c #6743A1",
"9  c #6A44A4",
"0  c #6D4AA5",
"q  c #6E45AB",
"w  c #6F48A9",
"e  c #7047AC",
"r  c #7349AD",
"t  c #7455A3",
"y  c #7451AC",
"u  c #7B5AAE",
"i  c #7549B1",
"p  c #794CB3",
"a  c #764ABA",
"s  c #7C4EBC",
"d  c #7A54B4",
"f  c #7F5BB4",
"g  c #7D53BD",
"h  c #7E62A0",
"j  c #7D4EC4",
"k  c #7F4FCA",
"l  c #7F50C3",
"z  c #7F50CB",
"x  c #806B9F",
"c  c #815EB3",
"v  c #8454BD",
"b  c #836DA5",
"n  c #8770AB",
"m  c #8970AE",
"M  c #8562B5",
"N  c #8866B5",
"B  c #8D6DB6",
"V  c #906EBD",
"C  c #8D73B4",
"Z  c #8F74B8",
"A  c #9175BA",
"S  c #9478BE",
"D  c #8352C4",
"F  c #845AC2",
"G  c #8F5CC0",
"H  c #8353CC",
"J  c #8A56C9",
"K  c #8858CF",
"L  c #8654D2",
"P  c #8C57D1",
"I  c #8E59D3",
"U  c #8C58DB",
"Y  c #915BD6",
"T  c #945CDC",
"R  c #8D61C7",
"E  c #9564C6",
"W  c #9264CF",
"Q  c #996CC8",
"!  c #9679C2",
"~  c #997BC5",
"^  c #9E7ECC",
"/  c #9565D3",
"(  c #9B6ED3",
")  c #9661DA",
"_  c #9C65DC",
"`  c #9F7FD1",
"'  c #A17FCB",
"]  c #A269DE",
"[  c #AA73DF",
"{  c #B379D2",
"}  c #8E59E0",
"|  c #955DE5",
" . c #995FE4",
".. c #965EEA",
"X. c #995FE9",
"o. c #9C61E6",
"O. c #9D62EA",
"+. c #9C62F1",
"@. c #A268E4",
"#. c #A96EE3",
"$. c #A366EE",
"%. c #A469EB",
"&. c #A96CEA",
"*. c #B271E6",
"=. c #BF79EC",
"-. c #A365F1",
";. c #AB6AF3",
":. c #9A81BE",
">. c #9F89C1",
",. c #A48FC5",
"<. c #AD9ACA",
"1. c #B19FCB",
"2. c #A984D3",
"3. c #AC88D5",
"4. c #A581D9",
"5. c #AF8ED9",
"6. c #AF95D8",
"7. c #BCA6DE",
"8. c #BEA9DF",
"9. c #B184EC",
"0. c #B48AE9",
"q. c #BA88F0",
"w. c #C894DB",
"e. c #CB99DC",
"r. c #CFA3DD",
"t. c #C0ABDF",
"y. c #C987EA",
"u. c #C796EA",
"i. c #CF9BEF",
"p. c #D49EEE",
"a. c #CC82F1",
"s. c #D587F3",
"d. c #C293F2",
"f. c #C3B0E1",
"g. c #D6BBE0",
"h. c #D9A2F6",
"j. c #EDBBF7",
"k. c #CCC2D8",
"l. c #D4C2DF",
"z. c #D8D4DE",
"x. c #D5C6E1",
"c. c #D6C5E2",
"v. c #D5CAE2",
"b. c #DCD9E0",
"n. c #EDE6F6",
"m. c #F4EFFA",
"M. c #F4F0FA",
/* pixels */
"                                                                        ",
"                                                                        ",
"                                                                        ",
"                                                                        ",
"                          <.>.:.A N M u.i.h.^                           ",
"                      7.,.V d r 0 r w 9 2 0 y N n                       ",
"                  f.8.5.f w 1 % 1 * O o O O 1 2 y h ~                   ",
"                1.k.g.W j q 1 * o o o o o o o P %.#.Q 3.                ",
"              n.z.c.j.=.9 * * o.D I P P P * * o O J v Q Z               ",
"            c.M.S u 1 9 * * o D D o o r o.o.U * * * 1 : 4 '             ",
"            m.6.u 1 % o * s P p D o * * o.r i o o O O # : 3.            ",
"          b.v.( D q * * * * O.o.o o o * * * * % o o O p I [ d.          ",
"          k.N { v D o o o o o o o o o o o o o * * * * = + : B           ",
"        t.l./ a 1 o o D r D s P * * * & o o o o o o * $.;.) t C         ",
"        ,.p.a.v J v r r P P P o.* * * * o D D i D o * * i d F b         ",
"        6.y.#.p D D s s i I P I P r D D I P Y T P * * * = 1 0 B         ",
"        3.s._ T -.+. . . . . .$.;.J v Y Y Y P P P I Y Y - 1 9 N         ",
"        r.E Y T s o o o D i s o. .I I Y s p i r r r P I T %.9 c         ",
"        e.G r r D o o o r r o.* O o o o.P P P J s s p r p D &.q.        ",
"        p.*.%.$.P & X D X & * * D D o o o * * o.I T P p D -.@.0.        ",
"        i.G P * X X X X X & & & & * o.* * * * P o. .P * * O _ 3.        ",
"        w., O o X X X X % & & & H e X X X o o o o o o * * Y ] 2.        ",
"        ^ 2 + o & X q s j a i e q s e & & & Y H r l X r T %.u Z         ",
"          B I P H L ..+.D H } H | ..H X.H & & X r q r X o $ h           ",
"          ! > H H U ..+.z ..L H ..% % % % & j U -.X.O.& O r d.          ",
"            7 $ % H ..j q 9 a % % % % % % % % H H ..& * ; 7             ",
"            A 3 + X k k 9 . . . . . . . 9 k H H 9 X X + 3 C             ",
"              2.< + w k k k @ @ . . . . @ k k k | & , 9.m               ",
"                0.t y r U @ O O @ @ @ j U 8 8 s X + ( b                 ",
"                  ! 6 f 0 9 . . . . r 9 r e 0 0 ; ` ~                   ",
"                      b h < : I g D K I ) F R ! 4.                      ",
"                          x ~ A B N Q 5 6 7 b                           ",
"                                                                        ",
"                                                                        ",
"                                                                        ",
"                                                                        "
};
