/* XPM */
static char *c9d2f42f1f544cb1ab6957042739797e[] = {
/* columns rows colors chars-per-pixel */
"36 36 137 2 ",
"   c None",
".  c #3F2531",
"X  c #3E2630",
"o  c #3E2631",
"O  c #3F2631",
"+  c #3F2731",
"@  c #3F2632",
"#  c #402531",
"$  c #412833",
"%  c #422A35",
"&  c #452D38",
"*  c #462F3A",
"=  c #47303B",
"-  c #49323C",
";  c #48333E",
":  c #4C3641",
">  c #4F3842",
",  c #523C47",
"<  c #523D47",
"1  c #543F4A",
"2  c #53414D",
"3  c #574652",
"4  c #5D4852",
"5  c #5C4953",
"6  c #5D4954",
"7  c #5B4C58",
"8  c #62505A",
"9  c #615460",
"0  c #675660",
"q  c #70606A",
"w  c #70616B",
"e  c #70646F",
"r  c #746670",
"t  c #756770",
"y  c #756872",
"u  c #796870",
"i  c #746D7A",
"p  c #78727E",
"a  c #7C747F",
"s  c #E38628",
"d  c #E28B33",
"f  c #DF9B54",
"g  c #E2974B",
"h  c #E4994C",
"j  c #E6A663",
"k  c #E7B37D",
"l  c #7B7683",
"z  c #7D7580",
"x  c #817781",
"c  c #837881",
"v  c #817882",
"b  c #857A83",
"n  c #897F88",
"m  c #8C828B",
"M  c #888895",
"N  c #988F96",
"B  c #9F9298",
"V  c #9A949C",
"C  c #9B959D",
"Z  c #979CAA",
"A  c #AEA3A8",
"S  c #A8A4AC",
"D  c #AAA6AE",
"F  c #A4A6B1",
"G  c #A2A9B7",
"H  c #ADAAB2",
"J  c #B0B1BA",
"K  c #B2B2BB",
"L  c #B5B4BB",
"P  c #D9B68F",
"I  c #D7BFA1",
"U  c #D6C3AB",
"Y  c #DEC5A8",
"T  c #E7CAAA",
"R  c #AFB5C1",
"E  c #B9B8C0",
"W  c #BDBDC4",
"Q  c #BDBEC5",
"!  c #B0BECD",
"~  c #B8C7D6",
"^  c #C0C1C8",
"/  c #C2C3CB",
"(  c #C4C7CE",
")  c #C6C8CF",
"_  c #CFCACE",
"`  c #D3D4CF",
"'  c #C1CCD8",
"]  c #C0CEDA",
"[  c #C4CED9",
"{  c #CCD2DB",
"}  c #CFD4DB",
"|  c #C8D2DC",
" . c #D1D5DC",
".. c #D2D7DD",
"X. c #D3D8DF",
"o. c #EBD8C2",
"O. c #EBD8C3",
"+. c #EBDECD",
"@. c #D1D9E1",
"#. c #D6DEE7",
"$. c #D8DCE2",
"%. c #D0E2EC",
"&. c #D0E3EE",
"*. c #DBE1E8",
"=. c #DCE3E9",
"-. c #DFE6ED",
";. c #CFE5F3",
":. c #CFE7F7",
">. c #D2E4F1",
",. c #D9ECF9",
"<. c #DBEEFA",
"1. c #EDECE7",
"2. c #E5EDF3",
"3. c #EDEEF1",
"4. c #E8F1F7",
"5. c #E3F0F9",
"6. c #E0F1FB",
"7. c #E2F2FB",
"8. c #E3F2FB",
"9. c #E6F4FC",
"0. c #E9F2F8",
"q. c #E9F5FD",
"w. c #EAF6FD",
"e. c #EBF6FD",
"r. c #ECF6FC",
"t. c #EDF7FD",
"y. c #EDF7FE",
"u. c #EDF8FE",
"i. c #EEF8FE",
"p. c #EFF8FE",
"a. c #F4F3F4",
"s. c #F0F9FE",
"d. c #F1F9FE",
"f. c #F3FAFE",
"g. c #F5FBFE",
"h. c #FAFDFF",
"j. c white",
/* pixels */
"                  # O O O O O O O O O O O O O O O O #                   ",
"                  O O O O O O O O O O O O O O O O O O                   ",
"              O O O O O O O O O O O O O O O O O O O O O O               ",
"              O O O $ & - - - - - - - - - - - - & $ O O O               ",
"            O O O O > u B B B B B B B B B B B B u > O O O O             ",
"          O O O O O 4 A a.a.a.a.a.a.a.a.a.a.a.a.A 4 O O O O O           ",
"        O O O O , q N _ j.j.j.j.j.j.j.j.j.j.j.j._ N q , O O O O         ",
"        O O O O 0 S $.3.j.j.j.j.j.j.j.j.j.j.j.j.3.$.S 0 O O O O         ",
"        O O O O q Q s.g.h.h.h.h.h.h.h.h.h.h.h.h.g.s.Q q O O O O         ",
"        O O O O q Q p.s.s.s.s.s.s.s.s.s.s.s.s.s.s.p.Q q O O O O         ",
"        O O O O q Q p.p.p.p.p.p.p.p.p.p.p.p.p.p.p.p.Q q O O O O         ",
"        O O O O q Q p.p.p.p.p.p.p.p.p.p.p.p.p.p.p.p.Q q O O O O         ",
"        O O O O q Q p.p.t.0.2.4.t.p.p.t.4.2.0.t.p.p.Q q O O O O         ",
"        O O O O q Q p.p.0./ C E -.p.p.-.E C / 0.p.p.Q q O O O O         ",
"        O O O O q Q p.p.2.C , n ..p.p...n , C 2.p.p.Q q O O O O         ",
"        O O O O q Q p.p.4.E n H =.p.p.=.H n E 4.p.p.Q q O O O O         ",
"        O O O O q Q p.p.t.-...=.0.p.p.0.=...-.t.p.p.Q q O O O O         ",
"        O O O O 8 C ) *.p.p.p.1.+.O.O.+.1.p.p.p.*.) C 8 O O O O         ",
"        O O O O : 8 b Q p.p.p.O.k j j k O.p.p.p.Q b 8 : O O O O         ",
"        O O O O = 1 r K q.q.q.T h s s h T q.q.q.K r 1 = O O O O         ",
"      O O O O O 6 m K | <.<.<.Y g s s g Y <.<.<.| K m 6 O O O O O       ",
"    O O O O % & y / q.<.:.:.:.U f d d f U :.:.:.<.q./ y & % O O O O     ",
"    O O O O 7 l F @.q.<.:.:.:.` I P P I ` :.:.:.<.q.@.F l 7 O O O O     ",
"    O O O O i ! >.5.q.<.:.:.:.;.&.&.&.&.;.:.:.:.<.q.5.>.! i O O O O     ",
"    O O O O a ' 5.q.q.5.<.<.<.' G Z Z G ' <.<.<.5.q.q.5.' a O O O O     ",
"    O O O O x { q.t.p.q.q.q.q.K e 3 3 e K q.q.q.q.p.t.q.{ x O O O O     ",
"    O O O O c ..p.p.p.p.p.p.p.S 4 O O 4 S p.p.p.p.p.p.p...c O O O O     ",
"    O O O O c ..p.p.p.p.p.p.p.S 4 O O 4 S p.p.p.p.p.p.p...c O O O O     ",
"    O O O O c ..p.p.p.p.p.p.p.L r 4 4 r L p.p.p.p.p.p.p...c O O O O     ",
"    O O O O c ..p.p.p.p.p.p.p.X.L S S L X.p.p.p.p.p.p.p...c O O O O     ",
"    O O O O c } t.p.p.p.p.p.p.p.p.p.p.p.p.p.p.p.p.p.p.t.} c O O O O     ",
"    O O O O z [ 5.q.p.p.p.p.p.p.p.p.p.p.p.p.p.p.p.p.q.5.[ z O O O O     ",
"    O O O O p ~ <.9.p.p.p.p.p.p.p.p.p.p.p.p.p.p.p.p.9.<.~ p O O O O     ",
"      O O O 9 M R #.p.p.p.p.p.p.p.p.p.p.p.p.p.p.p.p.#.R M 9 O O O       ",
"        O O - 2 c ( p.p.p.p.p.p.p.p.p.p.p.p.p.p.p.p.( c 2 - O O         ",
"        O O O O q Q p.p.p.p.p.p.p.p.p.p.p.p.p.p.p.p.Q q O O O O         "
};
