/* XPM */
static char *_b3ed7e67ac843fa90e6aa4f4a17f7fa[] = {
/* columns rows colors chars-per-pixel */
"36 36 54 1 ",
"  c None",
". c #6F3D43",
"X c #6F3E43",
"o c #754245",
"O c #77484A",
"+ c #804B49",
"@ c #85504B",
"# c #87524C",
"$ c #8C584D",
"% c #8E5A4E",
"& c #885550",
"* c #8F5D52",
"= c #885B58",
"- c #8D5F5A",
"; c #90625B",
": c #90645F",
"> c #A16655",
", c #B2735B",
"< c #B87B5D",
"1 c #BA836A",
"2 c #C88563",
"3 c #C68B61",
"4 c #CA8864",
"5 c #CF8D65",
"6 c #CB8A68",
"7 c #CD9363",
"8 c #D19066",
"9 c #D1926A",
"0 c #DC9D69",
"q c #CE9B70",
"w c #D09572",
"e c #D29773",
"r c #D9A279",
"t c #E3A56B",
"y c #ECB06E",
"u c #E4AD78",
"i c #E7B27D",
"p c #B99583",
"a c #CAA289",
"s c #DBA986",
"d c #D1AA8B",
"f c #D2B198",
"g c #EEBA80",
"h c #E0B491",
"j c #E7BC93",
"k c #EFC18D",
"l c #EAC6A0",
"z c #EFCBA2",
"x c #EBC8A5",
"c c #F1CEA2",
"v c #F2D0A7",
"b c #F0D3AF",
"n c #F3D5B0",
"m c #F3D8B4",
/* pixels */
"  ................................  ",
"  ................................  ",
"....................................",
"...O=::::::::::::::::::;*%%*;::=O...",
"...=pffffffffffffffffffdq77qdffp=...",
"...:fmmmmmmmmmmmmmmmmmmvkggkvbxa-...",
"...:fmmmmmmmmmmmmmmmmmmnvccvnxs1&...",
"...;dvnmmmmmmmmmmmmmmmmmmmmbxhw,@...",
"...*qkvmmmmmmmmmmmmmmmmmmmmxsw6,@...",
"...%7gcmmnvcccccccccccccczlhw22,@...",
"...%7gcmmvkggggggggggggggirw622,@...",
"...*qkvmmcgyyyyyyyyyyyyyyt82222,@...",
"...;dvnmmcgyyyyyyyyyyyyyyt82222,@...",
"...:fmmmmcgyyyyyyyyyyyyyyt82222,@...",
"...:fmmmmcgyyyyyyyyyyyyyyt82222,@...",
"...:fmmmmcgyyyyyyyyyyyyyyt82222,@...",
"...:fmmmmcgyyyyyyyyyyyyyyt82222,@...",
"...:fmmmmcgyyyyyyyyyyyyyyt82222,@...",
"...:fmmmmcgyyyyyyyyyyyyyyt82222,@...",
"...:fmmmmcgyyyyyyyyyyyyyyt82222,@...",
"...:fmmmmcgyyyyyyyyyyyyyyt82222,@...",
"...:fmmmmcgyyyyyyyyyyyyyyt82222,@...",
"...:fmmmmcgyyyyyyyyyyyyyyt82222,@...",
"...:fmmmmcgyyyyyyyyyyyyyyt82245<#...",
"...:fmmmmcgyyyyyyyyyyyyyyt822503%...",
"...:fmmbxjutttttttttttttt05228t7%...",
"...:fmmxsw98888888888888854228t7%...",
"...:fbxhw22222222222222222222503%...",
"...:fxsw62222222222222222222245<#...",
"...-ahw458854222222222222222222,@...",
"...&1w650tt05222222222222222222,@...",
"...+>,,<3773<,,,,,,,,,,,,,,,,,,>+...",
"...o+@@#%%%%#@@@@@@@@@@@@@@@@@@+o...",
"....................................",
"  ................................  ",
"  ................................  "
};
